<svg width="20" height="21" viewBox="0 0 20 21" fill="none" xmlns="http://www.w3.org/2000/svg">
<path d="M19.1667 2.88851C19.1667 2.88851 17.485 3.88184 16.55 4.16351C16.0481 3.58643 15.3811 3.17742 14.6392 2.99178C13.8973 2.80614 13.1163 2.85284 12.4017 3.12555C11.6872 3.39827 11.0737 3.88384 10.6442 4.5166C10.2146 5.14937 9.98976 5.89879 10 6.66351V7.49684C8.53554 7.53481 7.0844 7.21002 5.77585 6.55138C4.4673 5.89274 3.34194 4.9207 2.50001 3.72184C2.50001 3.72184 -0.833323 11.2218 6.66668 14.5552C4.95045 15.7201 2.90597 16.3043 0.833344 16.2218C8.33334 20.3885 17.5 16.2218 17.5 6.63851C17.5 6.40684 17.4767 6.17517 17.4333 5.94684C18.2833 5.10851 19.1667 2.88851 19.1667 2.88851Z" stroke="#196BA8" stroke-width="1.25" stroke-linecap="round" stroke-linejoin="round"/>
</svg>
