<svg width="20" height="21" viewBox="0 0 20 21" fill="none" xmlns="http://www.w3.org/2000/svg">
<path d="M5.83333 14.5468V8.71346M17.5 7.04679V13.7135C17.5 14.8185 17.061 15.8783 16.2796 16.6597C15.4982 17.4411 14.4384 17.8801 13.3333 17.8801H6.66667C5.5616 17.8801 4.50179 17.4411 3.72039 16.6597C2.93899 15.8783 2.5 14.8185 2.5 13.7135V7.04679C2.5 5.94172 2.93899 4.88192 3.72039 4.10052C4.50179 3.31911 5.5616 2.88013 6.66667 2.88013H13.3333C14.4384 2.88013 15.4982 3.31911 16.2796 4.10052C17.061 4.88192 17.5 5.94172 17.5 7.04679Z" stroke="#196BA8" stroke-width="1.25" stroke-linecap="round" stroke-linejoin="round"/>
<path d="M9.16668 14.5468V11.8385M9.16668 11.8385V8.71348M9.16668 11.8385C9.16668 8.71348 14.1667 8.71348 14.1667 11.8385V14.5468M5.83334 6.22181L5.84168 6.21265" stroke="#196BA8" stroke-width="1.25" stroke-linecap="round" stroke-linejoin="round"/>
</svg>
